# xmcd
#
# Track frame offsets:
#	151
#	19364
#	36002
#	55317
#	70945
#	92924
#	113111
#	132948
#	151764
#	169243
#	189599
#	205769
#	226273
#	243839
#	267983
#	287325
#
# Disc length: 4120 seconds
#
# Revision: 0
# Processed by: cddbd v1.5.1PL0 Copyright (c) Steve Scherf et al.
# Submitted via: dBpowerAMP V4.0
#
DISCID=d9101610
DTITLE=江美琪 - 想起
DYEAR=2001
DGENRE=pop
TTITLE0=寂寞飞行
TTITLE1=凝望
TTITLE2=亲爱的你怎么不在身边
TTITLE3=泡泡糖
TTITLE4=天使的爱情
TTITLE5=原来我们都是如此平凡
TTITLE6=想起
TTITLE7=I Feel So Good
TTITLE8=在我身边
TTITLE9=笨金鱼
TTITLE10=孤单
TTITLE11=我知道我会哭
TTITLE12=悄悄话
TTITLE13=希望变成你
TTITLE14=双手的温柔
TTITLE15=我又想起你
EXTD=
EXTT0=
EXTT1=
EXTT2=
EXTT3=
EXTT4=
EXTT5=
EXTT6=
EXTT7=
EXTT8=
EXTT9=
EXTT10=
EXTT11=
EXTT12=
EXTT13=
EXTT14=
EXTT15=
PLAYORDER=
